<svg width="96" height="98" viewBox="0 0 96 98" fill="none" xmlns="http://www.w3.org/2000/svg">
<g clip-path="url(#clip0_177_83)">
<path d="M96 50.0858C96 46.0684 95.6732 43.1368 94.966 40.0967H48.9796V58.229H75.9726C75.4286 62.7351 72.4898 69.5212 65.9591 74.0812L65.8675 74.6883L80.4076 85.9248L81.4149 86.0251C90.6665 77.5016 96 64.9608 96 50.0858Z" fill="#4285F4"/>
<path d="M48.9796 97.8601C62.2039 97.8601 73.3058 93.5168 81.4149 86.0252L65.9591 74.0813C61.8231 76.9587 56.2719 78.9673 48.9796 78.9673C36.0273 78.9673 25.0342 70.4442 21.1154 58.6636L20.541 58.7122L5.42208 70.3844L5.22437 70.9327C13.2787 86.8935 29.823 97.8601 48.9796 97.8601Z" fill="#34A853"/>
<path d="M21.1154 58.6634C20.0814 55.6232 19.483 52.3657 19.483 48.9999C19.483 45.6338 20.0814 42.3766 21.061 39.3365L21.0336 38.689L5.72523 26.8293L5.22436 27.067C1.90478 33.6903 0 41.1281 0 48.9999C0 56.8718 1.90478 64.3091 5.22436 70.9325L21.1154 58.6634Z" fill="#FBBC05"/>
<path d="M48.9796 19.0323C58.1767 19.0323 64.3807 22.9954 67.9182 26.3072L81.7413 12.8435C73.2518 4.97162 62.2039 0.139893 48.9796 0.139893C29.823 0.139893 13.2787 11.1062 5.22437 27.067L21.061 39.3364C25.0342 27.5558 36.0273 19.0323 48.9796 19.0323Z" fill="#EB4335"/>
</g>
<defs>
<clipPath id="clip0_177_83">
<rect width="96" height="98" fill="white"/>
</clipPath>
</defs>
</svg>
