<svg width="60" height="48" viewBox="0 0 60 48" fill="none" xmlns="http://www.w3.org/2000/svg">
<g clip-path="url(#clip0_15_86)">
<path d="M35.4405 0C28.7734 0 23.207 2.57285 19.3537 7.44598C15.9684 11.7208 14.1833 17.4462 14.1833 24.0053C14.1833 30.5644 15.9712 36.2899 19.3537 40.5647C23.207 45.4325 28.7693 48.0106 35.4405 48.0106C48.9829 48 60.0041 37.2299 60.0041 24C60.0041 10.7701 48.9829 0 35.4405 0ZM51.16 24C51.1553 28.0723 49.4975 31.9765 46.5504 34.8556C43.6034 37.7348 39.6078 39.3538 35.4405 39.3573C31.2484 39.3573 28.0305 37.7618 25.8725 34.6278C24.0357 31.9552 23.0247 28.1817 23.0247 24C23.0247 19.8183 24.0357 16.0448 25.8725 13.3722C28.0291 10.2382 31.2498 8.64266 35.4405 8.64266C39.6078 8.64618 43.6034 10.2652 46.5504 13.1444C49.4975 16.0236 51.1553 19.9277 51.16 24Z" fill="url(#paint0_linear_15_86)"/>
<path d="M11.8158 23.3817C11.8158 20.7836 12.1546 18.228 12.4539 15.9716C13.0907 11.165 13.6921 6.62561 10.6715 3.26561C8.78293 1.1661 5.92696 0.0997329 1.94029 0.00665811C1.43102 -0.00142698 0.939081 0.18733 0.571491 0.531866C0.390523 0.705209 0.246767 0.912095 0.14864 1.14041C0.0505125 1.36872 -1.22689e-05 1.61387 2.3933e-05 1.86151V6.79979C-0.00192065 7.28152 0.189239 7.74484 0.532565 8.09054C0.875891 8.43623 1.34409 8.63681 1.83688 8.64932C3.20432 8.68921 3.80436 8.8953 4.0139 8.99369C4.07241 9.17586 4.17582 9.69574 4.1037 10.9882C4.03839 12.1596 3.85607 13.5357 3.67919 14.8694C3.34583 17.3837 2.96893 20.2331 2.96893 23.3884C2.96893 26.4758 3.33494 29.3864 3.65878 31.9539C3.86967 33.6013 4.08193 35.3099 4.12684 36.6981C4.1799 38.4452 3.92274 38.9093 3.88192 38.9704C3.77035 39.0608 3.18391 39.3082 1.83144 39.3547C1.34088 39.3695 0.875473 39.5703 0.533674 39.9145C0.191874 40.2587 0.00049539 40.7193 2.3933e-05 41.1989V46.1385C-0.00123087 46.3825 0.0468681 46.6244 0.141557 46.8502C0.236246 47.076 0.375659 47.2813 0.551785 47.4542C0.727912 47.6272 0.937279 47.7645 1.16786 47.8581C1.39844 47.9518 1.64568 48 1.89539 48H1.94437C5.78409 47.9003 8.58292 46.8233 10.5001 44.7065C13.7288 41.1391 13.1016 36.1636 12.439 30.8955C12.1328 28.4543 11.8158 25.94 11.8158 23.3817Z" fill="url(#paint1_linear_15_86)"/>
</g>
<defs>
<linearGradient id="paint0_linear_15_86" x1="-6.95693" y1="55.0511" x2="61.9041" y2="2.86042" gradientUnits="userSpaceOnUse">
<stop stop-color="#AF98C8"/>
<stop offset="0.09" stop-color="#AB9AC9"/>
<stop offset="0.19" stop-color="#9E9ECD"/>
<stop offset="0.3" stop-color="#88A6D4"/>
<stop offset="0.4" stop-color="#6AB2DE"/>
<stop offset="0.49" stop-color="#49BEE8"/>
<stop offset="0.64" stop-color="#48A9DA"/>
<stop offset="0.93" stop-color="#4673B7"/>
<stop offset="1" stop-color="#4565AE"/>
</linearGradient>
<linearGradient id="paint1_linear_15_86" x1="-18.3522" y1="40.0142" x2="50.5088" y2="-12.1751" gradientUnits="userSpaceOnUse">
<stop stop-color="#AF98C8"/>
<stop offset="0.09" stop-color="#AB9AC9"/>
<stop offset="0.19" stop-color="#9E9ECD"/>
<stop offset="0.3" stop-color="#88A6D4"/>
<stop offset="0.4" stop-color="#6AB2DE"/>
<stop offset="0.49" stop-color="#49BEE8"/>
<stop offset="0.64" stop-color="#48A9DA"/>
<stop offset="0.93" stop-color="#4673B7"/>
<stop offset="1" stop-color="#4565AE"/>
</linearGradient>
<clipPath id="clip0_15_86">
<rect width="60" height="48" fill="white"/>
</clipPath>
</defs>
</svg>
