<svg width="38" height="38" viewBox="0 0 38 38" fill="none" xmlns="http://www.w3.org/2000/svg">
<g clip-path="url(#clip0_83_254)">
<path d="M20.5833 34.8333C25.7108 34.8333 29.8895 30.7712 30.0768 25.6895L30.0833 25.3333V12.6667C30.0833 7.53923 26.0212 3.36053 20.9395 3.17323L20.5833 3.16668H17.4167C12.2892 3.16668 8.11051 7.22885 7.92322 12.3105L7.91667 12.6667V25.3333C7.91667 30.4608 11.9788 34.6395 17.0605 34.8268L17.4167 34.8333H20.5833ZM20.5833 31.6667H17.4167C14.0249 31.6667 11.2558 29.0004 11.0911 25.6494L11.0833 25.3333V12.6667C11.0833 9.27493 13.7496 6.50581 17.1006 6.3411L17.4167 6.33335H20.5833C23.9751 6.33335 26.7442 8.99969 26.9089 12.3506L26.9167 12.6667V25.3333C26.9167 28.7252 24.2503 31.4942 20.8994 31.6589L20.5833 31.6667ZM19 28.5C19.812 28.5 20.4812 27.8888 20.5727 27.1013L20.5833 26.9167V20.5833C20.5833 19.7089 19.8745 19 19 19C18.188 19 17.5188 19.6112 17.4273 20.3987L17.4167 20.5833V26.9167C17.4167 27.7911 18.1255 28.5 19 28.5Z" fill="#F9F7FB"/>
</g>
<defs>
<clipPath id="clip0_83_254">
<rect width="38" height="38" fill="white" transform="matrix(1 0 0 -1 0 38)"/>
</clipPath>
</defs>
</svg>
