<svg width="215" height="77" viewBox="0 0 215 77" fill="none" xmlns="http://www.w3.org/2000/svg">
<g clip-path="url(#clip0_196_525)">
<path d="M181.879 1.85448C165.757 1.85448 155.231 12.0277 155.231 28.8379C155.231 49.7226 171.349 55.6881 182.905 55.6881C191.59 55.6881 199.833 52.4337 205.797 46.6706L198.361 39.8235C194.386 43.0779 189.824 45.0434 183.053 45.0434C174.073 45.0434 168.036 40.231 168.036 33.5863H208.079C208.003 33.5197 215 1.85704 181.876 1.85704L181.879 1.85448ZM168.039 24.5021C168.039 15.5512 175.399 11.2795 183.275 11.2795C191.151 11.2795 198.292 15.687 198.292 24.5021H168.039ZM34.4484 23.6206C29.2935 23.0107 14.5021 23.5514 14.5021 17.3142C14.5021 13.6524 20.7558 11.6203 26.4254 11.6203C32.4232 11.5439 38.312 13.1004 43.3533 16.0945L51.0814 9.04238C48.8003 7.34855 40.3377 1.85704 26.4282 1.85704C13.7649 1.85448 2.35628 7.95331 2.35628 17.7166C2.35628 32.7022 22.0077 32.7022 30.1754 33.4505C35.1828 33.922 39.6728 34.1936 39.6728 38.6678C39.6728 42.8704 32.7542 45.1766 27.3824 45.1766C18.6221 45.1766 13.3949 42.5347 8.2428 38.2629L0 45.9275C7.13838 52.3005 16.7833 55.7573 26.7175 55.6907C41.4393 55.6907 52.1135 49.7226 52.1135 37.7222C52.1135 29.7886 46.2993 25.0428 34.4484 23.6206ZM76.6973 1.85448C68.4958 1.80903 60.5233 4.34494 54.0998 9.04238L61.828 16.1611C66.1358 13.1913 71.3895 11.6182 76.7696 11.6869C86.5592 11.6869 89.5024 15.2796 89.5024 19.3489V24.4304H72.0598C65.5808 24.4304 52.9203 25.9218 52.9203 39.0086C52.9203 48.6361 58.8847 55.6856 73.1643 55.6856C80.3026 55.6856 85.7496 53.5843 89.5024 49.4484V54.6708H102.163V20.1612C102.163 8.09168 94.1399 1.85704 76.6973 1.85704V1.85448ZM89.5775 35.8234C89.5775 45.7917 81.8494 45.2484 75.0031 45.2484C68.1568 45.2484 63.5945 43.552 63.5945 39.0778C63.5945 34.9419 67.1998 33.5171 74.7082 33.5171H89.5775V35.8234ZM141.249 2.941V8.70413C136.903 4.16076 131.751 1.85448 124.76 1.85448C112.762 1.85448 106.581 8.0225 104.519 14.6671C103.71 17.1092 103.49 21.7859 103.49 28.7021C103.49 35.211 103.562 41.1765 105.991 45.7199C109.451 52.0929 117.767 55.6881 124.76 55.6881C131.532 55.6881 137.273 53.2461 141.249 49.0435V52.2979C141.249 56.093 139.849 58.6017 137.198 60.5672C134.55 62.5352 131.237 63.755 126.599 63.755C122.404 63.755 118.429 61.6537 116.148 60.1623L107.61 68.0267C113.129 72.1627 119.683 74.943 126.822 75.0096C133.665 75.1455 140.364 73.1134 145.739 69.1107C150.816 65.4488 154.057 58.4659 154.057 51.1448V2.941H141.249ZM141.249 28.7047C141.249 32.7048 141.174 35.6876 140.804 37.2482C139.997 40.5692 135.874 44.9768 128.368 44.9768C126.452 44.9768 116.885 43.9594 115.78 36.2975C115.474 33.7769 115.352 31.2403 115.413 28.7047C115.413 22.7391 115.705 20.8377 116 19.3489C116.662 16.3661 120.932 11.8919 128.366 11.8919C137.421 11.8919 140.364 17.5859 140.806 19.823C141.174 22.7391 141.321 25.7219 141.249 28.7047Z" fill="#00DD00"/>
</g>
<defs>
<clipPath id="clip0_196_525">
<rect width="215" height="77" fill="white"/>
</clipPath>
</defs>
</svg>
