<svg width="68" height="68" viewBox="0 0 68 68" fill="none" xmlns="http://www.w3.org/2000/svg">
<rect width="68" height="68" rx="9" fill="#C7D3ED"/>
<g clip-path="url(#clip0_26_88)">
<path d="M36.337 20.7459C37.6287 20.9737 38.4911 22.2055 38.2634 23.4972L34.4142 45.3271C34.1865 46.6188 32.9547 47.4814 31.6628 47.2536C30.3712 47.0259 29.5086 45.7941 29.7364 44.5022L33.5856 22.6724C33.8133 21.3806 35.0452 20.5181 36.337 20.7459ZM26.971 25.6028C27.8985 26.5303 27.8985 28.0341 26.971 28.9616L21.9328 33.9997L26.971 39.0378C27.8985 39.9653 27.8985 41.469 26.971 42.3966C26.0435 43.3241 24.5397 43.3241 23.6122 42.3966L16.8947 35.6791C16.4493 35.2337 16.1991 34.6295 16.1991 33.9997C16.1991 33.3698 16.4493 32.7658 16.8947 32.3204L23.6122 25.6028C24.5397 24.6753 26.0435 24.6753 26.971 25.6028ZM44.3876 25.6028L51.1052 32.3204C51.5506 32.7658 51.8008 33.3698 51.8008 33.9997C51.8008 34.6295 51.5506 35.2337 51.1052 35.6791L44.3876 42.3966C43.4601 43.3241 41.9564 43.3241 41.0289 42.3966C40.1014 41.469 40.1014 39.9653 41.0289 39.0378L46.0671 33.9997L41.0289 28.9616C40.1014 28.0341 40.1014 26.5303 41.0289 25.6028C41.9564 24.6753 43.4601 24.6753 44.3876 25.6028Z" fill="#436BB2"/>
</g>
<defs>
<clipPath id="clip0_26_88">
<rect width="38" height="38" fill="white" transform="translate(15 15)"/>
</clipPath>
</defs>
</svg>
